<?xml version="1.0" encoding="utf-8"?>
<!-- Generator: Adobe Illustrator 27.9.0, SVG Export Plug-In . SVG Version: 6.00 Build 0)  -->
<svg version="1.1" id="Layer_1" xmlns="http://www.w3.org/2000/svg" xmlns:xlink="http://www.w3.org/1999/xlink" x="0px" y="0px"
	 viewBox="0 0 500 500" style="enable-background:new 0 0 500 500;" xml:space="preserve">
<g id="Edges">
</g>
<g id="Symbol">
	<g>
		<path d="M88.3,14.5C71.9,20.9,58,29.4,44.2,43.3C30.3,57,21.8,71,15.4,87.3C9.3,103,5.1,121.1,3.9,147.6s-1.5,35-1.5,102.6
			s0.3,76.1,1.5,102.6c1.2,26.5,5.5,44.6,11.5,60.4c6.4,16.4,14.9,30.2,28.7,44.1C58,471.1,71.9,479.6,88.3,486
			c15.8,6.2,33.9,10.3,60.4,11.5s35,1.5,102.6,1.5s76.1-0.3,102.6-1.5c26.5-1.2,44.6-5.5,60.4-11.5c16.4-6.4,30.2-14.9,44.1-28.7
			c13.9-13.9,22.4-27.7,28.7-44.1c6.2-15.8,10.3-33.9,11.5-60.4c1.2-26.5,1.5-35,1.5-102.6s-0.3-76.1-1.5-102.6
			c-1.2-26.5-5.5-44.6-11.5-60.4c-6.4-16.3-14.9-30.2-28.6-44c-13.9-13.9-27.7-22.4-44.1-28.7C398.5,8.4,380.4,4.2,353.9,3
			s-35-1.5-102.6-1.5S175.2,1.8,148.7,3C122.1,4.1,104,8.4,88.3,14.5z M351.7,47.7c24.3,1.1,37.4,5.2,46.2,8.6
			c11.6,4.6,19.9,9.9,28.6,18.6s14.1,17,18.6,28.6c3.4,8.8,7.5,21.9,8.6,46.2c1.2,26.2,1.4,34.1,1.4,100.5s-0.3,74.3-1.4,100.5
			c-1.1,24.3-5.2,37.4-8.6,46.2c-4.6,11.6-9.9,19.9-18.6,28.6c-8.7,8.7-17,14.1-28.6,18.6c-8.8,3.4-21.9,7.5-46.2,8.6
			c-26.2,1.2-34.1,1.4-100.5,1.4s-74.3-0.3-100.5-1.4c-24.3-1.1-37.4-5.2-46.2-8.6c-11.6-4.6-19.9-9.9-28.6-18.6
			c-8.7-8.7-14.1-17-18.6-28.6c-3.4-8.8-7.5-21.9-8.6-46.2c-1.2-26.2-1.4-34.1-1.4-100.5s0.3-74.3,1.4-100.5
			c1.1-24.3,5.2-37.4,8.6-46.2c4.6-11.6,9.9-19.9,18.6-28.6s17-14.1,28.6-18.6c8.8-3.4,21.9-7.5,46.2-8.6
			c26.2-1.2,34.1-1.4,100.5-1.4S325.5,46.5,351.7,47.7z"/>
		<path d="M123.5,250.3c0,70.6,57.2,127.7,127.7,127.7s127.7-57.2,127.7-127.7s-57.1-127.7-127.7-127.7S123.5,179.7,123.5,250.3z
			 M334.1,250.3c0,45.8-37.1,82.9-82.9,82.9s-82.9-37.1-82.9-82.9s37.1-82.9,82.9-82.9S334.1,204.5,334.1,250.3z"/>
		<circle cx="384.1" cy="117.5" r="29.8"/>
	</g>
</g>
</svg>
