<?xml version="1.0" encoding="UTF-8"?>
<svg xmlns="http://www.w3.org/2000/svg" viewBox="0 0 500 500">
  <defs>
    <style>
      .cls-1 {
        fill-rule: evenodd;
        stroke-width: 0px;
      }
    </style>
  </defs>
  <g id="Layer_1" data-name="Layer 1" image-rendering="optimizeQuality" shape-rendering="geometricPrecision" text-rendering="geometricPrecision">
    <path class="cls-1" d="m444.83,0H55.17C24.42,0-.5,24.92-.5,55.67v389.66c0,30.75,24.92,55.67,55.67,55.67h389.66c30.75,0,55.67-24.92,55.67-55.67V55.67c0-30.75-24.92-55.67-55.67-55.67ZM151.48,431.42h-74.71v-241.23h74.71v241.23Zm-37.72-272.81c-24.4,0-44.18-19.93-44.18-44.51s19.78-44.52,44.18-44.52,44.17,19.93,44.17,44.52-19.76,44.51-44.17,44.51Zm317.66,272.81h-74.35v-126.63c0-34.72-13.19-54.12-40.67-54.12-29.89,0-45.51,20.19-45.51,54.12v126.63h-71.65v-241.23h71.65v32.5s21.54-39.87,72.73-39.87,87.8,31.25,87.8,95.87v152.73Z"/>
  </g>
</svg>