<?xml version="1.0" encoding="utf-8"?>
<!-- Generator: Adobe Illustrator 27.9.0, SVG Export Plug-In . SVG Version: 6.00 Build 0)  -->
<svg version="1.1" id="Layer_1" xmlns="http://www.w3.org/2000/svg" xmlns:xlink="http://www.w3.org/1999/xlink" x="0px" y="0px"
	 viewBox="0 0 500 500" style="enable-background:new 0 0 500 500;" xml:space="preserve">
<path d="M447.7,148.6c0.3,4.4,0.3,8.8,0.3,13.2C448,296.6,345.4,452,157.8,452v-0.1C102.3,452,48.1,436.1,1.4,406.2
	c8.1,1,16.2,1.5,24.3,1.5c45.9,0,90.6-15.4,126.7-43.8c-43.6-0.8-81.9-29.3-95.3-70.8c15.3,2.9,31,2.3,46.1-1.8
	c-47.6-9.6-81.8-51.4-81.8-100V190c14.2,7.9,30.1,12.3,46.3,12.8C22.8,172.9,9,113.2,36,66.6c51.8,63.7,128.2,102.5,210.2,106.6
	c-8.2-35.4,3-72.6,29.5-97.5c41.1-38.6,105.7-36.6,144.3,4.4c22.8-4.5,44.7-12.9,64.8-24.8C477.2,79,461.3,99,440,111.8
	c20.2-2.4,40-7.8,58.6-16.1C484.9,116.3,467.7,134.1,447.7,148.6L447.7,148.6z"/>
</svg>
